<svg version="1.0" xmlns="http://www.w3.org/2000/svg"
 width="260.000000pt" height="110.000000pt" viewBox="0 0 260.000000 110.000000"
 preserveAspectRatio="xMidYMid meet">

<g transform="translate(0.000000,110.000000) scale(0.100000,-0.100000)"
fill="current">
<path fill="#1877f2" d="M228 1004 c-55 -29 -76 -111 -44 -172 44 -85 178 -82 220 5 20 43 20
73 -1 117 -28 59 -114 84 -175 50z"/>
<path fill="#1877f2" d="M828 1004 c-55 -29 -76 -111 -44 -172 44 -85 178 -82 220 5 20 43 20
73 -1 117 -28 59 -114 84 -175 50z"/>
<path fill="#1877f2" d="M526 875 c-163 -58 -169 -293 -8 -361 79 -33 182 -4 231 65 46 64 45
169 -1 234 -24 34 -110 77 -153 76 -16 0 -47 -6 -69 -14z"/>
<path fill="#1877f2" d="M1460 830 c-103 -22 -160 -83 -160 -171 0 -71 29 -106 133 -158 73
-36 87 -47 87 -67 0 -22 -4 -24 -55 -24 -30 0 -73 7 -95 16 -23 9 -42 15 -44
13 -2 -2 -13 -31 -25 -64 -21 -57 -22 -60 -4 -73 32 -23 127 -45 198 -45 134
0 215 62 223 172 4 53 2 61 -27 93 -17 20 -67 55 -111 77 -58 31 -80 47 -80
62 0 16 7 19 40 19 22 0 57 -7 77 -15 20 -8 37 -14 38 -13 5 6 45 132 42 133
-17 15 -74 35 -122 44 -64 12 -64 12 -115 1z"/>
<path d="M1795 818 c-3 -7 -4 -137 -3 -288 l3 -275 95 0 95 0 0 285 0 285 -93
3 c-69 2 -94 -1 -97 -10z"/>
<path d="M2064 816 c-3 -7 -4 -42 -2 -77 l3 -64 58 -3 57 -3 0 -210 0 -210 98
3 97 3 3 208 2 207 55 0 55 0 0 80 0 80 -210 0 c-168 0 -212 -3 -216 -14z"/>
<path fill="#1877f2" d="M119 729 c-7 -13 -15 -61 -17 -106 l-4 -82 33 -20 c42 -26 130 -29
150 -5 18 22 64 44 92 44 l25 0 -19 37 c-10 21 -19 56 -19 80 l0 43 -42 -6
c-28 -4 -58 0 -88 11 -78 29 -97 30 -111 4z"/>
<path fill="#1877f2" d="M965 729 c-33 -13 -64 -18 -92 -14 l-43 5 0 -38 c0 -20 -9 -56 -20
-79 -19 -43 -19 -43 1 -43 22 0 94 -34 104 -50 3 -5 30 -10 60 -10 43 0 60 5
82 24 26 23 28 29 27 94 -2 79 -20 126 -49 129 -11 1 -42 -7 -70 -18z"/>
<path fill="#1877f2" d="M333 503 c-82 -41 -134 -264 -80 -344 39 -57 46 -59 340 -59 296 0
312 3 343 62 13 24 15 51 12 117 -9 189 -107 288 -216 217 -86 -57 -197 -58
-279 -2 -43 29 -74 32 -120 9z"/>
</g>
</svg>
