<svg version="1.0" xmlns="http://www.w3.org/2000/svg"
 width="430.000000pt" height="106.000000pt" viewBox="0 0 430.000000 106.000000"
 preserveAspectRatio="xMidYMid meet">

   <g transform="translate(0.000000,106.000000) scale(0.100000,-0.100000)" fill="current">
      <path d="M360 993 c-31 -11 -80 -68 -86 -99 -8 -43 17 -93 61 -123 104 -70
      234 60 164 164 -35 51 -92 75 -139 58z"/>
      <path d="M960 993 c-31 -11 -80 -68 -86 -99 -8 -43 17 -93 61 -123 28 -19 43
      -23 77 -18 89 12 136 110 87 182 -35 51 -92 75 -139 58z"/>
      <path d="M646 858 c-55 -15 -120 -82 -134 -140 -39 -153 128 -284 269 -212 53
      27 109 113 109 169 0 72 -68 158 -143 180 -28 8 -53 15 -56 14 -3 -1 -24 -6
      -45 -11z"/>
      <path d="M1410 520 l0 -280 190 0 190 0 0 70 0 70 -90 0 -90 0 0 45 0 45 85 0
      85 0 0 60 0 60 -85 0 -85 0 0 35 0 35 90 0 90 0 0 70 0 70 -190 0 -190 0 0
      -280z"/>
      <path d="M1981 733 c-11 -38 -45 -158 -77 -268 -31 -110 -59 -206 -61 -212 -4
      -10 19 -13 94 -13 l100 0 12 55 12 55 79 0 79 0 12 -55 12 -55 100 0 c75 0 98
      3 94 13 -2 6 -30 102 -61 212 -32 110 -66 230 -77 268 l-20 67 -139 0 -139 0
      -20 -67z m187 -160 c7 -32 15 -68 18 -80 6 -22 3 -23 -45 -23 -28 0 -51 3 -51
      8 0 4 7 40 17 80 22 93 43 98 61 15z"/>
      <path d="M2500 520 l0 -280 95 0 95 0 0 85 c0 64 3 85 13 85 8 0 28 -37 46
      -85 l32 -85 105 0 105 0 -12 23 c-7 12 -32 57 -55 99 -24 43 -44 84 -44 92 0
      7 11 21 25 30 103 68 81 236 -38 292 -48 22 -64 24 -209 24 l-158 0 0 -280z
      m261 140 c14 -8 19 -21 19 -55 0 -48 -16 -65 -64 -65 -25 0 -26 2 -26 65 0 63
      1 65 26 65 14 0 34 -5 45 -10z"/>
      <path d="M3010 730 l0 -70 60 0 60 0 0 -210 0 -210 95 0 95 0 0 210 0 210 60
      0 60 0 0 70 0 70 -215 0 -215 0 0 -70z"/>
      <path d="M3510 520 l0 -280 95 0 95 0 0 115 0 115 80 0 80 0 0 -115 0 -115 95
      0 95 0 0 280 0 280 -95 0 -95 0 0 -105 0 -105 -80 0 -80 0 0 105 0 105 -95 0
      -95 0 0 -280z"/>
      <path d="M228 703 c-22 -37 -32 -131 -19 -166 22 -57 120 -74 176 -32 18 14
      49 29 68 32 l35 5 -14 34 c-8 18 -14 53 -14 76 l0 43 -48 -3 c-31 -2 -67 4
      -102 17 -30 12 -57 21 -60 21 -3 0 -13 -12 -22 -27z"/>
      <path d="M1080 710 c-25 -11 -66 -19 -92 -19 l-46 -1 -7 -42 c-4 -24 -13 -58
      -21 -75 -13 -33 -13 -33 15 -33 15 0 47 -14 71 -31 39 -28 48 -31 94 -25 74 8
      91 30 90 115 -2 73 -20 125 -44 127 -8 1 -35 -6 -60 -16z"/>
      <path d="M454 486 c-68 -30 -114 -134 -114 -257 0 -58 4 -72 26 -98 40 -48 73
      -53 357 -49 l259 3 34 37 c20 23 34 49 35 65 4 128 -18 212 -70 264 -54 54
      -79 57 -146 19 -95 -54 -197 -52 -287 6 -43 27 -51 28 -94 10z"/>
   </g>
</svg>
